<svg width="148" height="99" viewBox="0 0 148 99" fill="none" xmlns="http://www.w3.org/2000/svg">
<g clip-path="url(#clip0_1942_6764)">
<path fill-rule="evenodd" clip-rule="evenodd" d="M126.886 70.8857L112.13 49.0819L125.985 28.6717H113.688L105.902 41.5419L98.0308 28.6717H85.7343L99.5892 49.0819L84.833 70.8857H97.0481L105.902 56.5404L114.673 70.8857H126.886Z" fill="#181D27"/>
<path fill-rule="evenodd" clip-rule="evenodd" d="M145.44 60.9723C140.028 61.2979 137.324 59.0883 137.324 53.1843V38.2594H144.945V28.6746H137.324V17.9384H126.5V53.1048C126.5 64.6609 133.062 72.1213 145.438 70.8091L145.44 60.9723Z" fill="#181D27"/>
<path fill-rule="evenodd" clip-rule="evenodd" d="M80.439 52.0416C80.4164 53.862 80.1967 55.6745 79.7839 57.4475C77.9192 63.9641 73.1937 68.8834 66.4446 70.8876H79.0279L93.7822 49.0838L79.9292 28.6717H66.2895C73.2344 30.9279 78.5569 36.6923 80.1173 45.3119L50.2812 57.8526C51.3154 59.2692 52.6735 60.4177 54.2421 61.2024C55.8108 61.987 57.5443 62.385 59.2981 62.363C62.8219 62.363 66.4291 60.8124 68.2317 57.4475L80.439 52.0416Z" fill="#744EC5"/>
<path fill-rule="evenodd" clip-rule="evenodd" d="M47.8138 49.2457L67.6464 40.8859C65.681 38.5076 62.727 37.114 59.2865 37.114C53.0569 37.114 48.0445 42.0333 47.8099 49.2457" fill="#181D27"/>
<path fill-rule="evenodd" clip-rule="evenodd" d="M37.7967 51.4337V48.2103C38.4421 39.0616 44.5128 31.3996 52.7486 28.6724C54.8883 27.9645 57.1277 27.6046 59.3814 27.6063H30.5979C32.6287 29.8746 34.0986 32.588 34.8892 35.5281C31.788 30.6068 26.3375 27.6063 19.0108 27.6063C7.53608 27.6063 -0.00579834 35.7219 -0.00579834 46.4601V70.8825H10.8118V46.2139C10.8118 41.4612 14.2561 38.1816 19.0108 38.1816C26.1437 38.1816 26.9577 43.8376 26.9577 46.2139V70.8883H37.7967V66.4632C38.6995 68.1415 39.9009 69.6411 41.3418 70.8883H52.956C44.6214 68.26 38.446 60.6483 37.7967 51.4337Z" fill="#181D27"/>
<path d="M10.2729 0.706478H14.4209L17.0569 8.32977L19.7047 0.706478H23.8196L19.8675 11.1732L22.7749 18.498L29.2895 0.642517H34.1507L24.9477 23.65H21.0905L17.0569 14.0012L13.0389 23.6578H9.18361L0 0.650266H4.79533L11.3429 18.5058L14.196 11.1732L10.2729 0.706478Z" fill="#181D27"/>
<path d="M55.8693 0.650818V23.6583H51.4306V13.8389H40.9949V23.6583H36.5233V0.650818H40.9949V9.95461H51.4306V0.650818H55.8693Z" fill="#181D27"/>
<path d="M66.9193 0.650818H71.4569L79.9156 23.6583H75.3141L73.401 17.9229H64.9539L63.0311 23.6583H58.4296L66.9193 0.650818ZM72.3466 14.779L69.1813 5.28139L65.9987 14.779H72.3466Z" fill="#181D27"/>
<path d="M97.5115 4.57198H90.1557V23.6583H85.715V4.57198H78.3495V0.650818H97.5018L97.5115 4.57198Z" fill="#181D27"/>
<path d="M99.2617 8.32883L100.006 4.37472H98.7112V0H103.053V4.44062L101.919 8.32883H99.2617Z" fill="#181D27"/>
<path d="M120.812 6.67769C120.556 6.44712 120.28 6.24077 119.986 6.06131C119.523 5.76985 119.034 5.52012 118.526 5.31507C117.919 5.0664 117.297 4.85537 116.664 4.68319C115.999 4.50109 115.312 4.40853 114.623 4.40795C113.411 4.40795 112.5 4.63473 111.884 5.08635C111.584 5.30151 111.342 5.58803 111.181 5.92002C111.019 6.25201 110.943 6.619 110.959 6.98781C110.946 7.26206 110.991 7.53607 111.091 7.79169C111.191 8.04732 111.344 8.27874 111.541 8.4706C112.049 8.90269 112.644 9.2218 113.285 9.4068C114.061 9.66524 115.03 9.94435 116.193 10.2441C117.547 10.556 118.866 11.0048 120.129 11.5835C121.149 12.034 122.032 12.7453 122.69 13.6458C123.283 14.4948 123.58 15.6184 123.581 17.0165C123.612 18.1041 123.379 19.1829 122.901 20.1604C122.464 21.0121 121.817 21.7384 121.021 22.2712C120.193 22.8215 119.275 23.2205 118.307 23.4497C117.246 23.7014 116.158 23.8257 115.067 23.8199C113.912 23.8183 112.76 23.6988 111.63 23.4633C110.502 23.2288 109.398 22.8867 108.335 22.4418C107.307 22.0162 106.328 21.4787 105.418 20.8388L107.395 16.9816C107.714 17.2693 108.062 17.5245 108.432 17.7434C109.014 18.1005 109.621 18.4146 110.248 18.6835C111 19.0111 111.778 19.2762 112.574 19.4762C113.41 19.6925 114.271 19.8019 115.134 19.8018C116.344 19.8018 117.262 19.599 117.889 19.1932C118.16 19.0139 118.386 18.7737 118.549 18.4918C118.711 18.2098 118.805 17.8939 118.824 17.5691C118.843 17.2442 118.786 16.9195 118.657 16.6207C118.528 16.3219 118.332 16.0572 118.083 15.8477C117.452 15.3956 116.751 15.0523 116.007 14.8321C115.12 14.5413 114.073 14.2241 112.865 13.8804C111.612 13.5458 110.395 13.086 109.234 12.5081C108.349 12.0792 107.598 11.4154 107.063 10.5892C106.588 9.81384 106.35 8.84469 106.35 7.68172C106.35 6.1117 106.723 4.79432 107.468 3.72955C108.229 2.65187 109.279 1.8123 110.498 1.30862C111.842 0.746256 113.286 0.465871 114.743 0.484851C115.774 0.47968 116.803 0.599438 117.805 0.841501C118.738 1.06757 119.647 1.38236 120.519 1.78157C121.308 2.14098 122.067 2.56362 122.789 3.04533L120.812 6.67769Z" fill="#181D27"/>
<path d="M32.0846 98.8317V75.8223H41.8381C42.8474 75.8116 43.8457 76.0338 44.7552 76.4716C45.6333 76.897 46.4201 77.4895 47.0714 78.2161C47.7245 78.9403 48.2454 79.7734 48.6104 80.6777C48.9735 81.5621 49.1604 82.5089 49.1609 83.4649C49.1633 84.7518 48.8519 86.0199 48.2538 87.1593C47.6708 88.3014 46.8137 89.281 45.7592 90.0105C44.6516 90.7601 43.3379 91.1456 42.0009 91.1134H36.5562V98.8259L32.0846 98.8317ZM36.5562 87.202H41.7411C42.2626 87.2075 42.7725 87.0488 43.1987 86.7484C43.6569 86.413 44.0153 85.9595 44.2357 85.4362C44.5039 84.8177 44.6362 84.1487 44.6234 83.4746C44.6443 82.7689 44.494 82.0686 44.1853 81.4336C43.9323 80.9151 43.5396 80.4774 43.0514 80.1698C42.5978 79.8916 42.0756 79.7453 41.5434 79.7473H36.5562V87.202Z" fill="#181D27"/>
<path d="M52.2718 98.8313V75.8219H56.7434V94.9063H68.4759V98.8275L52.2718 98.8313Z" fill="#181D27"/>
<path d="M87.1726 94.9063V98.8275H71.1972V75.8219H86.8818V79.7431H75.6689V85.2846H85.3603V88.9151H75.6689V94.9063H87.1726Z" fill="#181D27"/>
<path d="M96.928 75.8219H101.464L109.922 98.8313H105.321L103.408 93.0959H94.9607L93.0379 98.8313H88.4364L96.928 75.8219ZM102.355 89.952L99.19 80.4544L96.0093 89.952H102.355Z" fill="#181D27"/>
<path d="M125.867 81.8505C125.611 81.62 125.335 81.4136 125.041 81.2342C124.577 80.9441 124.089 80.6951 123.581 80.4899C122.974 80.2403 122.352 80.0293 121.719 79.858C121.054 79.6749 120.367 79.5824 119.678 79.5827C118.466 79.5827 117.546 79.8076 116.939 80.2592C116.639 80.4745 116.397 80.7614 116.235 81.0937C116.074 81.4261 115.998 81.7935 116.014 82.1626C116.001 82.4368 116.046 82.7109 116.146 82.9665C116.246 83.2221 116.399 83.4535 116.596 83.6454C117.105 84.0768 117.699 84.3952 118.34 84.5796C119.116 84.8381 120.088 85.1178 121.257 85.4189C122.612 85.7293 123.931 86.1774 125.194 86.7563C126.214 87.2082 127.097 87.92 127.755 88.8206C128.348 89.6696 128.645 90.7925 128.646 92.1894C128.677 93.2769 128.443 94.3557 127.966 95.3333C127.529 96.1859 126.882 96.913 126.086 97.446C125.258 97.9959 124.339 98.3943 123.372 98.6225C122.31 98.8743 121.222 98.9986 120.131 98.9928C118.977 98.9918 117.825 98.873 116.695 98.6381C115.566 98.4027 114.463 98.0606 113.4 97.6166C112.374 97.1905 111.399 96.6522 110.492 96.0117L112.469 92.1564C112.789 92.4435 113.137 92.6986 113.506 92.9182C114.088 93.2745 114.695 93.5881 115.322 93.8563C116.075 94.1846 116.853 94.4504 117.648 94.651C118.485 94.8666 119.345 94.9754 120.209 94.9747C121.418 94.9747 122.336 94.7718 122.963 94.3661C123.235 94.187 123.461 93.947 123.623 93.6652C123.785 93.3834 123.88 93.0676 123.898 92.7429C123.917 92.4182 123.86 92.0936 123.731 91.7949C123.603 91.4963 123.406 91.2318 123.157 91.0225C122.527 90.5689 121.826 90.2254 121.081 90.0068C120.195 89.7161 119.147 89.3982 117.939 89.0532C116.686 88.7201 115.469 88.2609 114.309 87.6828C113.423 87.2539 112.671 86.5893 112.138 85.762C111.662 84.9867 111.424 84.0175 111.424 82.8546C111.424 81.282 111.797 79.9639 112.543 78.9005C113.302 77.8302 114.348 76.9958 115.561 76.4931C116.904 75.9298 118.349 75.6494 119.806 75.6693C120.837 75.6632 121.866 75.783 122.868 76.026C123.801 76.2512 124.71 76.566 125.582 76.966C126.372 77.3247 127.131 77.7474 127.851 78.2298L125.867 81.8505Z" fill="#181D27"/>
<path d="M148 94.9063V98.8275H132.023V75.8219H147.707V79.7431H136.496V85.2846H146.188V88.9151H136.496V94.9063H148Z" fill="#181D27"/>
</g>
<defs>
<clipPath id="clip0_1942_6764">
<rect width="148" height="98.9923" fill="white"/>
</clipPath>
</defs>
</svg>
